<svg width="495" height="250" viewBox="0 0 495 250" fill="none" xmlns="http://www.w3.org/2000/svg" role="img" aria-labelledby="title desc">
  <title id="title">xingfengwxx&apos;s Top Languages</title>
  <desc id="desc">Auto-generated GitHub top languages card.</desc>
  <defs>
    <linearGradient id="bg" x1="0" y1="0" x2="1" y2="1">
      <stop offset="0%" stop-color="#0D1117"/>
      <stop offset="100%" stop-color="#111827"/>
    </linearGradient>
    <style>
      .title { fill: #58A6FF; font: 700 33px 'Segoe UI', Ubuntu, Sans-Serif; }
      .label { fill: #D1D5DB; font: 600 16px 'Segoe UI', Ubuntu, Sans-Serif; }
      .value { fill: #31C6B8; font: 700 16px 'Segoe UI', Ubuntu, Sans-Serif; }
      .meta { fill: #6E7681; font: 400 11px 'Segoe UI', Ubuntu, Sans-Serif; }
    </style>
  </defs>

  <rect x="1" y="1" width="493" height="248" rx="12" fill="url(#bg)" stroke="#30363D"/>
    <text x="24" y="42" class="title">xingfengwxx&apos;s Top Languages</text>

  
  <circle cx="26" cy="69" r="5" fill="#58A6FF"/>
  <text x="40" y="74" class="label">Kotlin</text>
    <text x="276" y="84" class="value" dominant-baseline="middle">39.8%</text>

  <circle cx="26" cy="97" r="5" fill="#C792EA"/>
  <text x="40" y="102" class="label">Java</text>
    <text x="276" y="112" class="value" dominant-baseline="middle">37.9%</text>

  <circle cx="26" cy="125" r="5" fill="#31C6B8"/>
  <text x="40" y="130" class="label">Python</text>
    <text x="276" y="140" class="value" dominant-baseline="middle">8.7%</text>

  <circle cx="26" cy="153" r="5" fill="#F59E0B"/>
  <text x="40" y="158" class="label">C</text>
    <text x="276" y="168" class="value" dominant-baseline="middle">5.8%</text>

  <circle cx="26" cy="181" r="5" fill="#EC4899"/>
  <text x="40" y="186" class="label">C++</text>
    <text x="276" y="196" class="value" dominant-baseline="middle">4.9%</text>

  <circle cx="26" cy="209" r="5" fill="#7C3AED"/>
  <text x="40" y="214" class="label">Vue</text>
    <text x="276" y="224" class="value" dominant-baseline="middle">2.9%</text>

  
  <rect x="40" y="81" width="220" height="6" rx="3" fill="#1F2937"/>
  <rect x="40" y="81" width="87" height="6" rx="3" fill="#58A6FF"/>

  <rect x="40" y="109" width="220" height="6" rx="3" fill="#1F2937"/>
  <rect x="40" y="109" width="83" height="6" rx="3" fill="#C792EA"/>

  <rect x="40" y="137" width="220" height="6" rx="3" fill="#1F2937"/>
  <rect x="40" y="137" width="19" height="6" rx="3" fill="#31C6B8"/>

  <rect x="40" y="165" width="220" height="6" rx="3" fill="#1F2937"/>
  <rect x="40" y="165" width="12" height="6" rx="3" fill="#F59E0B"/>

  <rect x="40" y="193" width="220" height="6" rx="3" fill="#1F2937"/>
  <rect x="40" y="193" width="10" height="6" rx="3" fill="#EC4899"/>

  <rect x="40" y="221" width="220" height="6" rx="3" fill="#1F2937"/>
  <rect x="40" y="221" width="6" height="6" rx="3" fill="#7C3AED"/>


  <text x="24" y="238" class="meta">Updated: 2026-03-06 03:24 UTC</text>
</svg>
